# xmcd
#
# Track frame offsets: 
#        150
#        17503
#        32542
#        51882
#        71032
#        88679
#        106222
#        124286
#        143287
#        160950
#        179319
#
# Disc length: 2606 seconds
#
# Revision: 0
# Processed by: cddbd v1.5.2PL0 Copyright (c) Steve Scherf et al.
# Submitted via: ExactAudioCopy v0.90b4
#
DISCID=890a2c0b
DTITLE=Michelle Malone - debris
DYEAR=2009
DGENRE=Roots, Blues, Folk
TTITLE0=Feather In A Hurricane
TTITLE1=Yesterday's Make Up
TTITLE2=Debris
TTITLE3=Undertow
TTITLE4=Marked
TTITLE5=Restraining Order Blues
TTITLE6=Chattahoochee Boogaloo
TTITLE7=Weed And Wine
TTITLE8=14th Street and Mars
TTITLE9=Sunburn
TTITLE10=Candle For The Lonely
EXTD=
EXTT0=
EXTT1=
EXTT2=
EXTT3=
EXTT4=
EXTT5=
EXTT6=
EXTT7=
EXTT8=
EXTT9=
EXTT10=
PLAYORDER=
